<svg width="204" height="45" viewBox="0 0 204 45"
                            fill="none" xmlns="http://www.w3.org/2000/svg">
                            <rect width="204" height="45" />
                            <path
                                d="M34.1504 35.1055H9.41797C7.46094 35.1055 5.97266 35.0703 4.95312 35L5.02344 30.7285L5.16406 24.9805C5.1875 24.6523 5.28711 22.3848 5.46289 18.1777C5.65039 13.959 5.79102 11.1582 5.88477 9.77539C7.6543 9.57617 9.8457 9.47656 12.459 9.47656C15.084 9.47656 17.252 9.48828 18.9629 9.51172L18.5586 18.3008C18.5352 19.4609 18.3887 22.918 18.1191 28.6719L31.6719 28.3555C33.0312 28.3555 34.1387 28.4199 34.9941 28.5488C34.9941 29.2988 34.9004 30.2773 34.7129 31.4844L34.1504 35.1055ZM50.375 9.56445L53.4336 9.5293C53.4805 9.82227 53.5039 10.1328 53.5039 10.4609L53.416 12.8164L52.9414 34.8242L49.584 34.9121C49.584 34.9121 46.5195 34.9414 40.3906 35C40.3555 34.6602 40.3379 34.2266 40.3379 33.6992C40.3379 33.6992 40.5371 25.7305 40.9355 9.79297C43.5254 9.64062 46.6719 9.56445 50.375 9.56445ZM87.9746 9.03711L92.5977 9.00195C92.5977 9.07227 90.8164 12.8281 87.2539 20.2695C83.7031 27.6992 81.6582 31.9531 81.1191 33.0312L80.2051 35.123C79.666 35.1934 78.0488 35.2695 75.3535 35.3516C72.6699 35.4336 70.6777 35.4746 69.377 35.4746C68.3457 33.1777 66.3477 28.6309 63.3828 21.834C60.4297 15.0254 58.9121 11.5156 58.8301 11.3047L58.0566 9.35352L66.6523 8.98438H71.1699L76.0215 22.502L80.2578 9.16016L87.9746 9.03711ZM126.928 35.1582H115.73L95.6387 35.0176L95.9375 28.8301C96.5352 16.4199 96.834 10.0566 96.834 9.74023C98.2402 9.68164 99.1602 9.65234 99.5938 9.65234H117.383C121.332 9.65234 124.525 9.62891 126.963 9.58203L126.242 16.209C123.406 16.4668 117.758 16.5957 109.297 16.5957C109.262 16.877 109.221 17.3516 109.174 18.0195C109.139 18.6875 109.109 19.1914 109.086 19.5312C112.461 19.4727 114.816 19.4434 116.152 19.4434L120.02 19.5488C120.02 20.0645 119.938 20.9551 119.773 22.2207C119.621 23.4863 119.451 24.4648 119.264 25.1562C119.076 25.2031 117.617 25.2266 114.887 25.2266H108.857L108.664 28.6543L127.121 28.8652C127.121 31.0801 127.086 32.6621 127.016 33.6113C126.957 34.5488 126.928 35.0645 126.928 35.1582Z"
                                fill="#00b7ff" />
                            <g style="mix-blend-mode:multiply">
                                <path
                                    d="M135.465 27.6133V21.3086C135.465 20.8633 135.57 20.5273 135.781 20.3008C136 20.0508 136.25 19.832 136.531 19.6445C136.812 19.457 137.039 19.3633 137.211 19.3633C137.453 19.3633 137.574 19.5312 137.574 19.8672V26.6055C137.574 27.0273 137.379 27.3867 136.988 27.6836C136.605 27.9727 136.234 28.1172 135.875 28.1172C135.602 28.1172 135.465 27.9492 135.465 27.6133ZM143.234 16.8086C143.328 16.8945 143.406 16.9609 143.469 17.0078C143.531 17.0547 143.586 17.0859 143.633 17.1016C143.688 17.1172 143.75 17.125 143.82 17.125C144.008 17.125 144.367 16.957 144.898 16.6211C145.93 15.9648 146.836 15.6367 147.617 15.6367C148.836 15.6367 149.742 16.0234 150.336 16.7969C150.938 17.5625 151.238 18.832 151.238 20.6055V26.5352C151.238 26.957 151.043 27.3281 150.652 27.6484C150.27 27.9609 149.902 28.1172 149.551 28.1172C149.277 28.1172 149.141 27.9492 149.141 27.6133V22.9844C149.141 22.4688 149.137 22.0469 149.129 21.7188C149.121 21.3906 149.105 21.0234 149.082 20.6172C149.059 20.2109 149.023 19.8828 148.977 19.6328C148.93 19.3828 148.863 19.1172 148.777 18.8359C148.699 18.5547 148.598 18.3359 148.473 18.1797C148.348 18.0156 148.195 17.8633 148.016 17.7227C147.844 17.5742 147.637 17.4727 147.395 17.418C147.16 17.3555 146.891 17.3242 146.586 17.3242C146.039 17.3242 145.504 17.4727 144.98 17.7695C144.457 18.0586 143.734 18.5664 142.812 19.293C142.57 19.4727 142.395 19.5625 142.285 19.5625C142.191 19.5625 142.109 19.4844 142.039 19.3281C142.008 19.2578 141.977 19.1641 141.945 19.0469C141.773 18.4531 141.539 18.0195 141.242 17.7461C140.945 17.4648 140.5 17.3242 139.906 17.3242C139.445 17.3242 138.934 17.4609 138.371 17.7344C137.816 18.0078 137.121 18.4688 136.285 19.1172C136.027 19.3125 135.836 19.4102 135.711 19.4102C135.547 19.4102 135.465 19.2852 135.465 19.0352V17.1133C135.465 16.6992 135.66 16.3516 136.051 16.0703C136.441 15.7812 136.816 15.6367 137.176 15.6367C137.449 15.6367 137.586 15.8047 137.586 16.1406V16.4336C137.586 16.707 137.645 16.8438 137.762 16.8438C137.84 16.8438 137.996 16.7695 138.23 16.6211C139.223 15.9648 140.086 15.6367 140.82 15.6367C141.258 15.6367 141.625 15.6914 141.922 15.8008C142.227 15.9102 142.664 16.2461 143.234 16.8086ZM142.238 27.6133V21.3086C142.238 20.8711 142.344 20.5352 142.555 20.3008C142.766 20.0586 143.016 19.8438 143.305 19.6562C143.594 19.4609 143.82 19.3633 143.984 19.3633C144.227 19.3633 144.348 19.5312 144.348 19.8672V26.5352C144.348 26.8867 144.277 27.1523 144.137 27.332C143.941 27.5664 143.703 27.7578 143.422 27.9062C143.141 28.0469 142.883 28.1172 142.648 28.1172C142.375 28.1172 142.238 27.9492 142.238 27.6133ZM158.703 15.6367C160.484 15.6367 161.793 16.1641 162.629 17.2188C163.473 18.2656 163.895 19.8125 163.895 21.8594C163.895 22.4922 163.812 23.1719 163.648 23.8984C163.492 24.6172 163.277 25.2578 163.004 25.8203C162.707 26.4141 162.344 26.918 161.914 27.332C161.484 27.7461 161.137 27.9531 160.871 27.9531C160.707 27.9531 160.625 27.8789 160.625 27.7305C160.625 27.6836 160.652 27.6211 160.707 27.543C160.762 27.4648 160.836 27.3477 160.93 27.1914C161.023 27.0273 161.105 26.8398 161.176 26.6289C161.496 25.7539 161.656 24.5156 161.656 22.9141C161.656 22.0312 161.594 21.2656 161.469 20.6172C161.352 19.9609 161.152 19.3789 160.871 18.8711C160.598 18.3633 160.215 17.9805 159.723 17.7227C159.23 17.457 158.629 17.3242 157.918 17.3242C156.934 17.3242 155.918 17.6836 154.871 18.4023C154.832 18.4336 154.773 18.4766 154.695 18.5312C154.617 18.5781 154.555 18.6172 154.508 18.6484C154.469 18.6797 154.426 18.707 154.379 18.7305C154.332 18.7539 154.293 18.7656 154.262 18.7656C154.152 18.7656 154.098 18.6992 154.098 18.5664C154.098 18.4805 154.141 18.3555 154.227 18.1914C154.32 18.0273 154.398 17.9062 154.461 17.8281C155.602 16.3672 157.016 15.6367 158.703 15.6367ZM155.844 21.5312C155.844 22.0781 155.855 22.5469 155.879 22.9375C155.902 23.3281 155.945 23.7344 156.008 24.1562C156.078 24.5781 156.18 24.9297 156.312 25.2109C156.453 25.4922 156.625 25.75 156.828 25.9844C157.039 26.2188 157.305 26.3945 157.625 26.5117C157.945 26.6211 158.32 26.6758 158.75 26.6758C159.117 26.6758 159.438 26.625 159.711 26.5234C159.992 26.4219 160.152 26.3711 160.191 26.3711C160.355 26.3711 160.438 26.457 160.438 26.6289C160.438 26.9805 160.184 27.3594 159.676 27.7656C159.176 28.1641 158.559 28.3633 157.824 28.3633C157.145 28.3633 156.551 28.25 156.043 28.0234C155.543 27.7969 155.141 27.5 154.836 27.1328C154.531 26.7656 154.285 26.3047 154.098 25.75C153.918 25.1953 153.797 24.6367 153.734 24.0742C153.672 23.5117 153.641 22.875 153.641 22.1641C153.641 21.7656 153.68 21.3477 153.758 20.9102C153.836 20.4648 153.941 20.125 154.074 19.8906C154.238 19.6094 154.5 19.3516 154.859 19.1172C155.227 18.8828 155.539 18.7656 155.797 18.7656C155.992 18.7656 156.09 18.8828 156.09 19.1172C156.09 19.1562 156.047 19.457 155.961 20.0195C155.883 20.582 155.844 21.0859 155.844 21.5312ZM169.637 18.9297V23.0312C169.637 23.7031 169.676 24.2734 169.754 24.7422C169.832 25.2031 169.945 25.5781 170.094 25.8672C170.25 26.1562 170.441 26.3633 170.668 26.4883C170.902 26.6133 171.176 26.6758 171.488 26.6758C171.855 26.6758 172.16 26.6328 172.402 26.5469C172.652 26.4531 172.859 26.3555 173.023 26.2539C173.188 26.1445 173.324 26.0469 173.434 25.9609C173.543 25.8672 173.652 25.8203 173.762 25.8203C173.863 25.8203 173.938 25.8516 173.984 25.9141C174.031 25.9688 174.055 26.043 174.055 26.1367C174.055 26.2695 174 26.4609 173.891 26.7109C173.789 26.9531 173.613 27.1992 173.363 27.4492C173.113 27.6914 172.781 27.9023 172.367 28.082C171.961 28.2695 171.449 28.3633 170.832 28.3633C170.23 28.3633 169.719 28.2773 169.297 28.1055C168.883 27.9336 168.543 27.6562 168.277 27.2734C168.012 26.8828 167.82 26.3789 167.703 25.7617C167.586 25.1367 167.527 24.3711 167.527 23.4648V18.9297C167.527 18.7578 167.562 18.6289 167.633 18.543C167.711 18.4492 167.805 18.3828 167.914 18.3438C168.031 18.3047 168.148 18.2852 168.266 18.2852C168.391 18.2852 168.5 18.2852 168.594 18.2852C168.734 18.2852 168.867 18.293 168.992 18.3086C169.125 18.3164 169.238 18.3438 169.332 18.3906C169.426 18.4297 169.5 18.4922 169.555 18.5781C169.609 18.6641 169.637 18.7812 169.637 18.9297ZM166.918 16.3867V17.0547C166.918 17.25 166.875 17.4023 166.789 17.5117C166.703 17.6211 166.539 17.6758 166.297 17.6758H165.746C165.473 17.6758 165.336 17.5898 165.336 17.418C165.336 17.207 165.504 16.918 165.84 16.5508C166.184 16.1836 166.457 16 166.66 16C166.832 16 166.918 16.1289 166.918 16.3867ZM169.637 13.8672V15.3789C169.637 15.6211 169.691 15.7852 169.801 15.8711C169.91 15.957 170.062 16 170.258 16H173.398C173.672 16 173.809 16.0898 173.809 16.2695C173.809 16.457 173.676 16.6914 173.41 16.9727C173.152 17.2539 172.895 17.4414 172.637 17.5352C172.387 17.6289 171.938 17.6758 171.289 17.6758H168.148C167.953 17.6758 167.801 17.6328 167.691 17.5469C167.582 17.4609 167.527 17.2969 167.527 17.0547V14.8398C167.527 14.4102 167.719 14.0586 168.102 13.7852C168.484 13.5039 168.859 13.3633 169.227 13.3633C169.5 13.3633 169.637 13.5312 169.637 13.8672ZM177.957 16.1406V26.6055C177.957 26.9023 177.887 27.1445 177.746 27.332C177.543 27.5664 177.301 27.7578 177.02 27.9062C176.746 28.0469 176.492 28.1172 176.258 28.1172C175.984 28.1172 175.848 27.9492 175.848 27.6133V17.1484C175.848 16.8516 175.918 16.6133 176.059 16.4336C176.262 16.1992 176.5 16.0078 176.773 15.8594C177.055 15.7109 177.312 15.6367 177.547 15.6367C177.82 15.6367 177.957 15.8047 177.957 16.1406ZM177.957 10.0352V11.7344C177.957 12.0312 177.887 12.2734 177.746 12.4609C177.543 12.6953 177.301 12.8867 177.02 13.0352C176.746 13.1758 176.492 13.2461 176.258 13.2461C175.984 13.2461 175.848 13.0781 175.848 12.7422V11.043C175.848 10.7383 175.918 10.5 176.059 10.3281C176.262 10.0938 176.5 9.90234 176.773 9.75391C177.055 9.60547 177.312 9.53125 177.547 9.53125C177.82 9.53125 177.957 9.69922 177.957 10.0352ZM185.539 15.6367C187.32 15.6367 188.629 16.1641 189.465 17.2188C190.309 18.2656 190.73 19.8125 190.73 21.8594C190.73 22.4922 190.648 23.1719 190.484 23.8984C190.328 24.6172 190.113 25.2578 189.84 25.8203C189.543 26.4141 189.18 26.918 188.75 27.332C188.32 27.7461 187.973 27.9531 187.707 27.9531C187.543 27.9531 187.461 27.8789 187.461 27.7305C187.461 27.6836 187.488 27.6211 187.543 27.543C187.598 27.4648 187.672 27.3477 187.766 27.1914C187.859 27.0273 187.941 26.8398 188.012 26.6289C188.332 25.7539 188.492 24.5156 188.492 22.9141C188.492 22.0312 188.43 21.2656 188.305 20.6172C188.188 19.9609 187.988 19.3789 187.707 18.8711C187.434 18.3633 187.051 17.9805 186.559 17.7227C186.066 17.457 185.465 17.3242 184.754 17.3242C183.77 17.3242 182.754 17.6836 181.707 18.4023C181.668 18.4336 181.609 18.4766 181.531 18.5312C181.453 18.5781 181.391 18.6172 181.344 18.6484C181.305 18.6797 181.262 18.707 181.215 18.7305C181.168 18.7539 181.129 18.7656 181.098 18.7656C180.988 18.7656 180.934 18.6992 180.934 18.5664C180.934 18.4805 180.977 18.3555 181.062 18.1914C181.156 18.0273 181.234 17.9062 181.297 17.8281C182.438 16.3672 183.852 15.6367 185.539 15.6367ZM182.68 21.5312C182.68 22.0781 182.691 22.5469 182.715 22.9375C182.738 23.3281 182.781 23.7344 182.844 24.1562C182.914 24.5781 183.016 24.9297 183.148 25.2109C183.289 25.4922 183.461 25.75 183.664 25.9844C183.875 26.2188 184.141 26.3945 184.461 26.5117C184.781 26.6211 185.156 26.6758 185.586 26.6758C185.953 26.6758 186.273 26.625 186.547 26.5234C186.828 26.4219 186.988 26.3711 187.027 26.3711C187.191 26.3711 187.273 26.457 187.273 26.6289C187.273 26.9805 187.02 27.3594 186.512 27.7656C186.012 28.1641 185.395 28.3633 184.66 28.3633C183.98 28.3633 183.387 28.25 182.879 28.0234C182.379 27.7969 181.977 27.5 181.672 27.1328C181.367 26.7656 181.121 26.3047 180.934 25.75C180.754 25.1953 180.633 24.6367 180.57 24.0742C180.508 23.5117 180.477 22.875 180.477 22.1641C180.477 21.7656 180.516 21.3477 180.594 20.9102C180.672 20.4648 180.777 20.125 180.91 19.8906C181.074 19.6094 181.336 19.3516 181.695 19.1172C182.062 18.8828 182.375 18.7656 182.633 18.7656C182.828 18.7656 182.926 18.8828 182.926 19.1172C182.926 19.1562 182.883 19.457 182.797 20.0195C182.719 20.582 182.68 21.0859 182.68 21.5312ZM193.285 27.6133V21.3086C193.285 20.8711 193.391 20.5352 193.602 20.3008C193.812 20.0586 194.062 19.8438 194.352 19.6562C194.641 19.4609 194.867 19.3633 195.031 19.3633C195.273 19.3633 195.395 19.5312 195.395 19.8672V26.6055C195.395 27.0352 195.199 27.3945 194.809 27.6836C194.426 27.9727 194.055 28.1172 193.695 28.1172C193.422 28.1172 193.285 27.9492 193.285 27.6133ZM196.039 16.6328C196.484 16.3047 196.949 16.0586 197.434 15.8945C197.918 15.7227 198.352 15.6367 198.734 15.6367C200.094 15.6367 201.09 16.0195 201.723 16.7852C202.355 17.543 202.672 18.8164 202.672 20.6055V26.6055C202.672 27.0273 202.48 27.3867 202.098 27.6836C201.715 27.9727 201.34 28.1172 200.973 28.1172C200.699 28.1172 200.562 27.9492 200.562 27.6133V22.9844C200.562 22.25 200.555 21.6953 200.539 21.3203C200.531 20.9453 200.5 20.4961 200.445 19.9727C200.398 19.4492 200.316 19.0625 200.199 18.8125C200.082 18.5547 199.922 18.293 199.719 18.0273C199.523 17.7617 199.266 17.5781 198.945 17.4766C198.625 17.375 198.242 17.3242 197.797 17.3242C196.898 17.3242 195.668 17.9219 194.105 19.1172C193.855 19.3125 193.66 19.4102 193.52 19.4102C193.363 19.4102 193.285 19.2773 193.285 19.0117V17.1484C193.285 16.7266 193.477 16.3711 193.859 16.082C194.25 15.7852 194.625 15.6367 194.984 15.6367C195.258 15.6367 195.395 15.8047 195.395 16.1406V16.4336C195.395 16.7148 195.457 16.8555 195.582 16.8555C195.691 16.8555 195.844 16.7812 196.039 16.6328Z"
                                    fill="#00b7ff" />
                            </g>
                        </svg>